<svg width="21" height="19" viewBox="0 0 21 19" fill="none" xmlns="http://www.w3.org/2000/svg">
<path fill-rule="evenodd" clip-rule="evenodd" d="M2.36873 1.02344L1.13129 2.14302L4.68804 5.36104C4.3567 5.60948 4.0288 5.87629 3.7045 6.16003C2.97893 6.79487 2.32252 7.47262 1.74468 8.15066C1.39599 8.55981 1.14842 8.88166 1.01287 9.07341L0.711349 9.49996L1.01287 9.92651C1.14842 10.1183 1.39599 10.4401 1.74468 10.8493C2.32252 11.5273 2.97893 12.205 3.7045 12.8399C5.83129 14.7007 8.1134 15.8333 10.5 15.8333C12.0058 15.8333 13.47 15.3824 14.8799 14.5822L18.6313 17.9764L19.8687 16.8568L2.36873 1.02344ZM13.6016 13.4257L12.278 12.2281C11.7569 12.5067 11.1491 12.6666 10.5 12.6666C8.56701 12.6666 7 11.2488 7 9.4999C7 8.91264 7.17669 8.36271 7.4846 7.89126L5.9323 6.48679C5.59331 6.73412 5.25595 7.00519 4.92104 7.29821C4.26111 7.87562 3.6596 8.49669 3.13053 9.11748C3.01627 9.25156 2.91068 9.37948 2.81415 9.49996C2.91068 9.62043 3.01627 9.74835 3.13053 9.88243C3.6596 10.5032 4.26111 11.1243 4.92104 11.7017C6.75281 13.3044 8.65806 14.25 10.5 14.25C11.5222 14.25 12.5638 13.9588 13.6016 13.4257ZM8.80928 9.08978C8.77062 9.22058 8.75 9.35807 8.75 9.4999C8.75 10.3744 9.5335 11.0832 10.5 11.0832C10.6568 11.0832 10.8087 11.0646 10.9533 11.0296L8.80928 9.08978ZM17.5858 12.5803L16.3484 11.4606C16.9033 10.9531 17.4133 10.4177 17.8695 9.88239C17.9837 9.74831 18.0893 9.62039 18.1859 9.49991C18.0893 9.37944 17.9837 9.25152 17.8695 9.11744C17.3404 8.49665 16.7389 7.87557 16.079 7.29817C14.2472 5.69546 12.3419 4.74991 10.5 4.74991C10.043 4.74991 9.58208 4.80812 9.11936 4.92013L7.73514 3.66774C8.63853 3.34184 9.56118 3.16658 10.5 3.16658C12.8866 3.16658 15.1687 4.29916 17.2955 6.15999C18.0211 6.79483 18.6775 7.47258 19.2553 8.15061C19.604 8.55976 19.8516 8.88162 19.9871 9.07336L20.2887 9.49991L19.9871 9.92646C19.8516 10.1182 19.604 10.4401 19.2553 10.8492C18.7556 11.4356 18.197 12.0218 17.5858 12.5803Z" fill="#5B5B5B"/>
</svg>
